<?xml version="1.0" encoding="UTF-8" standalone="no"?>
<!DOCTYPE svg PUBLIC "-//W3C//DTD SVG 1.1//EN" "http://www.w3.org/Graphics/SVG/1.1/DTD/svg11.dtd">
<svg width="100%" height="100%" viewBox="0 0 640 864" version="1.1" xmlns="http://www.w3.org/2000/svg" xmlns:xlink="http://www.w3.org/1999/xlink" xml:space="preserve" xmlns:serif="http://www.serif.com/" style="fill-rule:evenodd;clip-rule:evenodd;stroke-linejoin:round;stroke-miterlimit:2;">
    <g transform="matrix(1,0,0,1,-1568,-160)">
        <g id="tree" transform="matrix(2.73504,0,0,1.10769,-2583.79,-112.492)">
            <rect x="1518" y="246" width="234" height="780" style="fill:none;"/>
            <clipPath id="_clip1">
                <rect x="1518" y="246" width="234" height="780"/>
            </clipPath>
            <g clip-path="url(#_clip1)">
                <g id="group" transform="matrix(0.365625,0,0,0.902778,1371.75,101.556)">
                    <g transform="matrix(1,0,0,1,30,240)">
                        <path d="M706,784L706,688C706,643.817 670.183,608 626,608L602,608C575.49,608 554,586.51 554,560C554,560 554,352 554,352L522,352C522,352 522,479.592 522,560C522,604.183 557.817,640 602,640L626,640C652.51,640 674,661.49 674,688C674,688 674,784 674,784L706,784Z" style="fill:rgb(23,85,124);"/>
                    </g>
                    <g id="leaf" transform="matrix(-0.666667,0,0,1,912,236)">
                        <path d="M588,572C588,567.582 582.627,564 576,564C565.529,564 552,564 552,564L552,568C552,572.418 557.373,576 564,576C574.471,576 588,576 588,576L588,572Z" style="fill:rgb(23,85,124);"/>
                    </g>
                    <g id="leaf1" serif:id="leaf" transform="matrix(-0.666667,0,0,-1,984,1348)">
                        <path d="M588,572C588,567.582 582.627,564 576,564C565.529,564 552,564 552,564L552,568C552,572.418 557.373,576 564,576C574.471,576 588,576 588,576L588,572Z" style="fill:rgb(23,85,124);"/>
                    </g>
                    <g id="leaf2" serif:id="leaf" transform="matrix(-1.33333,0,0,2,1376,-504)">
                        <path d="M588,568C588,566.939 587.368,565.922 586.243,565.172C585.117,564.421 583.591,564 582,564C571.759,564 552,564 552,564L552,572C552,573.061 552.632,574.078 553.757,574.828C554.883,575.579 556.409,576 558,576C568.241,576 588,576 588,576L588,568Z" style="fill:rgb(23,85,124);"/>
                    </g>
                    <g id="leaf3" serif:id="leaf" transform="matrix(0.888889,0,0,-1.33333,101.333,1516)">
                        <path d="M588,570C588,566.686 583.971,564 579,564L552,564L552,570C552,573.314 556.029,576 561,576L588,576L588,570Z" style="fill:rgb(23,85,124);"/>
                    </g>
                    <g id="page">
                        <g id="surface" transform="matrix(1.33333,0,0,5.33333,-240,-2280)">
                            <path d="M588,565.5C588,565.102 587.368,564.721 586.243,564.439C585.117,564.158 583.591,564 582,564C571.759,564 552,564 552,564L552,574.5C552,574.898 552.632,575.279 553.757,575.561C554.883,575.842 556.409,576 558,576C568.241,576 588,576 588,576L588,565.5Z" style="fill:rgb(23,85,124);"/>
                        </g>
                        <g id="page-d__content" transform="matrix(1,0,0,1,85.9299,319.821)">
                            <g transform="matrix(1.33333,0,0,6.66667,-141.93,-2375.82)">
                                <rect x="420" y="420" width="24" height="3" style="fill:white;"/>
                            </g>
                            <g transform="matrix(1.33333,0,0,1.33333,-141.93,-143.821)">
                                <rect x="420" y="420" width="24" height="3" style="fill:white;"/>
                            </g>
                            <g transform="matrix(1.33333,0,0,1.33333,-141.93,-111.821)">
                                <rect x="420" y="420" width="24" height="3" style="fill:white;"/>
                            </g>
                            <g transform="matrix(1.33333,0,0,1.33333,-141.93,-103.821)">
                                <rect x="420" y="420" width="24" height="3" style="fill:white;"/>
                            </g>
                        </g>
                    </g>
                </g>
                <g id="group1" serif:id="group" transform="matrix(0.365625,0,0,0.902778,1371.75,101.556)">
                    <g transform="matrix(-1,0,0,1,1410.89,33.3645)">
                        <path d="M674.886,990.635L674.886,814.635C674.886,788.126 653.396,766.635 626.886,766.635L506.886,766.635C462.703,766.635 426.886,730.818 426.886,686.636L426.886,510.635L458.886,510.635L458.886,686.635C458.886,713.145 480.377,734.635 506.886,734.635L626.886,734.635C671.069,734.636 706.886,770.453 706.886,814.635L706.886,990.635L674.886,990.635Z" style="fill:rgb(23,85,124);"/>
                    </g>
                    <g id="leaf4" serif:id="leaf" transform="matrix(0.666667,0,0,-1,552,1248)">
                        <path d="M588,572C588,567.582 582.627,564 576,564C565.529,564 552,564 552,564L552,568C552,572.418 557.373,576 564,576C574.471,576 588,576 588,576L588,572Z" style="fill:rgb(23,85,124);"/>
                    </g>
                    <g id="page1" serif:id="page">
                        <g id="surface1" serif:id="surface" transform="matrix(1.33333,0,0,5.33333,159.989,-2408)">
                            <path d="M588,565.5C588,565.102 587.368,564.721 586.243,564.439C585.117,564.158 583.591,564 582,564C571.759,564 552,564 552,564L552,574.5C552,574.898 552.632,575.279 553.757,575.561C554.883,575.842 556.409,576 558,576C568.241,576 588,576 588,576L588,565.5Z" style="fill:rgb(23,85,124);"/>
                        </g>
                        <g id="page-b__content" transform="matrix(1,0,0,1,485.93,192.821)">
                            <g transform="matrix(0.5,0,0,4,208.07,-1248.82)">
                                <rect x="420" y="420" width="24" height="3" style="fill:white;"/>
                            </g>
                            <g transform="matrix(0.5,0,0,1.33333,208.07,-112.821)">
                                <rect x="420" y="420" width="24" height="3" style="fill:white;"/>
                            </g>
                            <g transform="matrix(0.666667,0,0,6.66667,154.07,-2368.82)">
                                <rect x="420" y="420" width="24" height="3" style="fill:white;"/>
                            </g>
                            <g transform="matrix(1.33333,0,0,1.33333,-141.93,-144.821)">
                                <rect x="420" y="420" width="24" height="3" style="fill:white;"/>
                            </g>
                            <g transform="matrix(1.33333,0,0,1.33333,-141.93,-136.821)">
                                <rect x="420" y="420" width="24" height="3" style="fill:white;"/>
                            </g>
                            <g transform="matrix(1.33333,0,0,1.33333,-141.93,-104.821)">
                                <rect x="420" y="420" width="24" height="3" style="fill:white;"/>
                            </g>
                        </g>
                    </g>
                    <g transform="matrix(-1.33333,0,0,5.33333,1776,-2448)">
                        <g id="page2" serif:id="page">
                            <path id="surface2" serif:id="surface" d="M588,565.5C588,565.102 587.368,564.721 586.243,564.439C585.117,564.158 583.591,564 582,564C571.759,564 552,564 552,564L552,574.5C552,574.898 552.632,575.279 553.757,575.561C554.883,575.842 556.409,576 558,576C568.241,576 588,576 588,576L588,565.5Z" style="fill:rgb(23,85,124);"/>
                        </g>
                    </g>
                    <g id="leaf5" serif:id="leaf" transform="matrix(0.888889,0,0,1.33333,501.333,-120)">
                        <path d="M588,570C588,566.686 583.971,564 579,564L552,564L552,570C552,573.314 556.029,576 561,576L588,576L588,570Z" style="fill:rgb(23,85,124);"/>
                    </g>
                </g>
                <g id="group2" serif:id="group" transform="matrix(0.365625,0,0,0.902778,1371.75,101.556)">
                    <g transform="matrix(1,0,0,1,78,20)">
                        <path d="M706,1004L706,748C706,726.783 697.571,706.434 682.569,691.431C667.566,676.429 647.217,668 626,668L458,668C431.49,668 410,646.51 410,620L410,428L378,428L378,620C378,664.183 413.817,700 458,700L626,700C638.73,700 650.939,705.057 659.941,714.059C668.943,723.061 674,735.27 674,748L674,1004L706,1004Z" style="fill:rgb(34,118,172);"/>
                    </g>
                    <g id="page3" serif:id="page">
                        <g id="surface3" serif:id="surface" transform="matrix(1.33333,0,0,5.33333,-336,-2528)">
                            <path d="M588,565.5C588,565.102 587.368,564.721 586.243,564.439C585.117,564.158 583.591,564 582,564C571.759,564 552,564 552,564L552,574.5C552,574.898 552.632,575.279 553.757,575.561C554.883,575.842 556.409,576 558,576C568.241,576 588,576 588,576L588,565.5Z" style="fill:rgb(34,118,172);"/>
                        </g>
                        <g id="page-c__content" transform="matrix(1,0,0,1,-10.0701,71.8212)">
                            <g transform="matrix(0.666275,0,0,1.33333,138.235,-143.821)">
                                <rect x="420" y="420" width="24" height="3" style="fill:white;"/>
                            </g>
                            <g transform="matrix(0.666275,0,0,1.33333,138.244,-135.788)">
                                <rect x="420" y="420" width="24" height="3" style="fill:white;"/>
                            </g>
                            <g transform="matrix(1.33333,0,0,1.33333,-141.93,-127.821)">
                                <rect x="420" y="420" width="24" height="3" style="fill:white;"/>
                            </g>
                            <g transform="matrix(1.33333,0,0,1.33333,-141.93,-119.821)">
                                <rect x="420" y="420" width="24" height="3" style="fill:white;"/>
                            </g>
                            <g transform="matrix(1.33333,0,0,4,-141.93,-1231.82)">
                                <rect x="420" y="420" width="24" height="3" style="fill:white;"/>
                            </g>
                        </g>
                    </g>
                    <g transform="matrix(-1.33333,0,0,5.33333,1280,-2487.97)">
                        <g id="page4" serif:id="page">
                            <path id="surface4" serif:id="surface" d="M588,565.5C588,565.102 587.368,564.721 586.243,564.439C585.117,564.158 583.591,564 582,564C571.759,564 552,564 552,564L552,574.5C552,574.898 552.632,575.279 553.757,575.561C554.883,575.842 556.409,576 558,576C568.241,576 588,576 588,576L588,565.5Z" style="fill:rgb(34,118,172);"/>
                        </g>
                    </g>
                    <g id="leaf6" serif:id="leaf" transform="matrix(0.888889,0,0,-1.33333,-74.6667,1320)">
                        <path d="M588,570C588,566.686 583.971,564 579,564L552,564L552,570C552,573.314 556.029,576 561,576L588,576L588,570Z" style="fill:rgb(34,118,172);"/>
                    </g>
                    <g id="leaf7" serif:id="leaf" transform="matrix(0.888889,0,0,1.33333,5.33333,-160)">
                        <path d="M588,570C588,566.686 583.971,564 579,564L552,564L552,570C552,573.314 556.029,576 561,576L588,576L588,570Z" style="fill:rgb(34,118,172);"/>
                    </g>
                </g>
                <g id="group3" serif:id="group" transform="matrix(0.365625,0,0,0.902778,1371.75,101.556)">
                    <g transform="matrix(1,0,0,0.979592,-155.311,-75.102)">
                        <path d="M859.311,240L859.311,1122L875.311,1138.33C875.311,1138.33 891.311,1138.33 891.311,1138.33L891.311,240L859.311,240Z" style="fill:rgb(34,118,172);"/>
                    </g>
                    <g id="leaf8" serif:id="leaf" transform="matrix(0.888889,0,0,1.33333,253.333,-206)">
                        <path d="M588,570C588,566.686 583.971,564 579,564L552,564L552,570C552,573.314 556.029,576 561,576L588,576L588,570Z" style="fill:rgb(34,118,172);"/>
                    </g>
                    <g id="leaf9" serif:id="leaf" transform="matrix(0.888889,0,0,1.33333,253.333,-488)">
                        <path d="M588,570C588,566.686 583.971,564 579,564L552,564L552,570C552,573.314 556.029,576 561,576L588,576L588,570Z" style="fill:rgb(34,118,172);"/>
                    </g>
                    <g id="leaf10" serif:id="leaf" transform="matrix(0.666667,0,0,-1,304,776)">
                        <path d="M588,572C588,567.582 582.627,564 576,564C565.529,564 552,564 552,564L552,568C552,572.418 557.373,576 564,576C574.471,576 588,576 588,576L588,572Z" style="fill:rgb(34,118,172);"/>
                    </g>
                    <g id="leaf11" serif:id="leaf" transform="matrix(0.666667,0,0,1,376,-172)">
                        <path d="M588,572C588,567.582 582.627,564 576,564C565.529,564 552,564 552,564L552,568C552,572.418 557.373,576 564,576C574.471,576 588,576 588,576L588,572Z" style="fill:rgb(34,118,172);"/>
                    </g>
                    <g id="leaf12" serif:id="leaf" transform="matrix(0.666667,0,0,-1,304,1048)">
                        <path d="M588,572C588,567.582 582.627,564 576,564C565.529,564 552,564 552,564L552,568C552,572.418 557.373,576 564,576C574.471,576 588,576 588,576L588,572Z" style="fill:rgb(34,118,172);"/>
                    </g>
                    <g id="leaf13" serif:id="leaf" transform="matrix(0.888889,0,0,1.33333,173.333,-576)">
                        <path d="M588,570C588,566.686 583.971,564 579,564L552,564L552,570C552,573.314 556.029,576 561,576L588,576L588,570Z" style="fill:rgb(34,118,172);"/>
                    </g>
                    <g id="leaf14" serif:id="leaf" transform="matrix(0.888889,0,0,-1.33333,173.333,1096)">
                        <path d="M588,570C588,566.686 583.971,564 579,564L552,564L552,570C552,573.314 556.029,576 561,576L588,576L588,570Z" style="fill:rgb(34,118,172);"/>
                    </g>
                    <g id="page5" serif:id="page">
                        <g id="surface5" serif:id="surface" transform="matrix(1.33333,0,0,5.33333,-88,-2752)">
                            <path d="M588,565.5C588,565.102 587.368,564.721 586.243,564.439C585.117,564.158 583.591,564 582,564C571.759,564 552,564 552,564L552,574.5C552,574.898 552.632,575.279 553.757,575.561C554.883,575.842 556.409,576 558,576C568.241,576 588,576 588,576L588,565.5Z" style="fill:rgb(34,118,172);"/>
                        </g>
                        <g id="page-d__content1" serif:id="page-d__content" transform="matrix(1,0,0,1,237.93,-152.179)">
                            <g transform="matrix(1.33333,0,0,6.66667,-141.93,-2375.82)">
                                <rect x="420" y="420" width="24" height="3" style="fill:white;"/>
                            </g>
                            <g transform="matrix(1.33333,0,0,1.33333,-141.93,-143.821)">
                                <rect x="420" y="420" width="24" height="3" style="fill:white;"/>
                            </g>
                            <g transform="matrix(1.33333,0,0,1.33333,-141.93,-111.821)">
                                <rect x="420" y="420" width="24" height="3" style="fill:white;"/>
                            </g>
                            <g transform="matrix(1.33333,0,0,1.33333,-141.93,-103.821)">
                                <rect x="420" y="420" width="24" height="3" style="fill:white;"/>
                            </g>
                        </g>
                    </g>
                    <g transform="matrix(1.33333,0,0,5.33333,-88,-2608)">
                        <g id="page6" serif:id="page">
                            <path id="surface6" serif:id="surface" d="M588,565.5C588,565.102 587.368,564.721 586.243,564.439C585.117,564.158 583.591,564 582,564C571.759,564 552,564 552,564L552,574.5C552,574.898 552.632,575.279 553.757,575.561C554.883,575.842 556.409,576 558,576C568.241,576 588,576 588,576L588,565.5Z" style="fill:rgb(34,118,172);"/>
                        </g>
                    </g>
                    <g transform="matrix(-1.33333,0,0,5.33333,1528,-2816)">
                        <g id="page7" serif:id="page">
                            <path id="surface7" serif:id="surface" d="M588,565.5C588,565.102 587.368,564.721 586.243,564.439C585.117,564.158 583.591,564 582,564C571.759,564 552,564 552,564L552,574.5C552,574.898 552.632,575.279 553.757,575.561C554.883,575.842 556.409,576 558,576C568.241,576 588,576 588,576L588,565.5Z" style="fill:rgb(34,118,172);"/>
                        </g>
                    </g>
                    <g id="page8" serif:id="page">
                        <g id="surface8" serif:id="surface" transform="matrix(-1.33333,0,0,5.33333,1528,-2688)">
                            <path d="M588,565.5C588,565.102 587.368,564.721 586.243,564.439C585.117,564.158 583.591,564 582,564C571.759,564 552,564 552,564L552,574.5C552,574.898 552.632,575.279 553.757,575.561C554.883,575.842 556.409,576 558,576C568.241,576 588,576 588,576L588,565.5Z" style="fill:rgb(34,118,172);"/>
                        </g>
                        <g id="page-b__content1" serif:id="page-b__content" transform="matrix(1,0,0,1,333.93,-87.1788)">
                            <g transform="matrix(0.5,0,0,4,208.07,-1248.82)">
                                <rect x="420" y="420" width="24" height="3" style="fill:white;"/>
                            </g>
                            <g transform="matrix(0.5,0,0,1.33333,208.07,-112.821)">
                                <rect x="420" y="420" width="24" height="3" style="fill:white;"/>
                            </g>
                            <g transform="matrix(0.666667,0,0,6.66667,154.07,-2368.82)">
                                <rect x="420" y="420" width="24" height="3" style="fill:white;"/>
                            </g>
                            <g transform="matrix(1.33333,0,0,1.33333,-141.93,-144.821)">
                                <rect x="420" y="420" width="24" height="3" style="fill:white;"/>
                            </g>
                            <g transform="matrix(1.33333,0,0,1.33333,-141.93,-136.821)">
                                <rect x="420" y="420" width="24" height="3" style="fill:white;"/>
                            </g>
                            <g transform="matrix(1.33333,0,0,1.33333,-141.93,-104.821)">
                                <rect x="420" y="420" width="24" height="3" style="fill:white;"/>
                            </g>
                        </g>
                    </g>
                    <g id="leaf15" serif:id="leaf" transform="matrix(1.33333,0,0,-2,8,1666)">
                        <path d="M588,568C588,566.939 587.368,565.922 586.243,565.172C585.117,564.421 583.591,564 582,564C571.759,564 552,564 552,564L552,572C552,573.061 552.632,574.078 553.757,574.828C554.883,575.579 556.409,576 558,576C568.241,576 588,576 588,576L588,568Z" style="fill:rgb(34,118,172);"/>
                    </g>
                </g>
                <g id="group4" serif:id="group" transform="matrix(0.365625,0,0,0.902778,1371.75,101.556)">
                    <g transform="matrix(-1,0,0,1,1410.89,33.3645)">
                        <path d="M674.886,990.635L674.886,894.636C674.886,868.126 653.396,846.635 626.886,846.635L602.886,846.635C581.669,846.635 561.321,838.207 546.318,823.204C531.315,808.201 522.886,787.853 522.886,766.636C522.886,766.635 522.886,622.635 522.886,622.635L554.886,622.635L554.886,766.635C554.886,779.366 559.943,791.575 568.945,800.577C577.947,809.578 590.156,814.635 602.886,814.635L626.886,814.635C671.069,814.635 706.886,850.453 706.886,894.635L706.886,990.635L674.886,990.635Z" style="fill:rgb(68,160,218);"/>
                    </g>
                    <g id="leaf16" serif:id="leaf" transform="matrix(0.666667,0,0,-1,456,1320)">
                        <path d="M588,572C588,567.582 582.627,564 576,564C565.529,564 552,564 552,564L552,568C552,572.418 557.373,576 564,576C574.471,576 588,576 588,576L588,572Z" style="fill:rgb(68,160,218);"/>
                    </g>
                    <g id="page9" serif:id="page">
                        <g id="surface9" serif:id="surface" transform="matrix(1.33333,0,0,5.33333,64,-2336)">
                            <path d="M588,565.5C588,565.102 587.368,564.721 586.243,564.439C585.117,564.158 583.591,564 582,564C571.759,564 552,564 552,564L552,574.5C552,574.898 552.632,575.279 553.757,575.561C554.883,575.842 556.409,576 558,576C568.241,576 588,576 588,576L588,565.5Z" style="fill:rgb(68,160,218);"/>
                        </g>
                        <g id="page-a__content" transform="matrix(1,0,0,1,389.93,263.821)">
                            <g transform="matrix(0.666667,0,0,6.66667,138.07,-2383.82)">
                                <rect x="420" y="420" width="24" height="3" style="fill:white;"/>
                            </g>
                            <g transform="matrix(0.5,0,0,1.33333,228.07,-143.821)">
                                <rect x="420" y="420" width="24" height="3" style="fill:white;"/>
                            </g>
                            <g transform="matrix(0.5,0,0,1.33333,228.077,-135.788)">
                                <rect x="420" y="420" width="24" height="3" style="fill:white;"/>
                            </g>
                            <g transform="matrix(0.5,0,0,1.33333,228.07,-127.821)">
                                <rect x="420" y="420" width="24" height="3" style="fill:white;"/>
                            </g>
                            <g transform="matrix(1.33333,0,0,1.33333,-141.93,-119.821)">
                                <rect x="420" y="420" width="24" height="3" style="fill:white;"/>
                            </g>
                            <g transform="matrix(1.33333,0,0,1.33333,-141.93,-111.821)">
                                <rect x="420" y="420" width="24" height="3" style="fill:white;"/>
                            </g>
                            <g transform="matrix(0.666667,0,0,1.33333,138.07,-103.821)">
                                <rect x="420" y="420" width="24" height="3" style="fill:white;"/>
                            </g>
                        </g>
                    </g>
                    <g id="leaf17" serif:id="leaf" transform="matrix(1.33333,1.12166e-30,-1.71331e-30,-2,160,1864)">
                        <path d="M588,568C588,566.939 587.368,565.922 586.243,565.172C585.117,564.421 583.591,564 582,564C571.759,564 552,564 552,564L552,572C552,573.061 552.632,574.078 553.757,574.828C554.883,575.579 556.409,576 558,576C568.241,576 588,576 588,576L588,568Z" style="fill:rgb(68,160,218);"/>
                    </g>
                </g>
                <g id="group5" serif:id="group" transform="matrix(0.365625,0,0,0.902778,1371.75,101.556)">
                    <g transform="matrix(-1,0,0,1,1362,-95)">
                        <path d="M674,1119L674,767C674,754.27 668.943,742.061 659.941,733.059C650.939,724.057 638.73,719 626,719L554,719C532.783,719 512.434,710.571 497.431,695.569C482.429,680.566 474,660.217 474,639L474,415L506,415L506,639C506,651.73 511.057,663.939 520.059,672.941C529.061,681.943 541.27,687 554,687L626,687C647.217,687 667.566,695.429 682.569,710.431C697.571,725.434 706,745.783 706,767C706,767 706,1119 706,1119L674,1119Z" style="fill:rgb(34,118,172);"/>
                    </g>
                    <g id="leaf18" serif:id="leaf" transform="matrix(0.666667,0,0,-1,456,944)">
                        <path d="M588,572C588,567.582 582.627,564 576,564C565.529,564 552,564 552,564L552,568C552,572.418 557.373,576 564,576C574.471,576 588,576 588,576L588,572Z" style="fill:rgb(34,118,172);"/>
                    </g>
                    <g id="leaf19" serif:id="leaf" transform="matrix(0.666667,0,0,1,528,-44)">
                        <path d="M588,572C588,567.582 582.627,564 576,564C565.529,564 552,564 552,564L552,568C552,572.418 557.373,576 564,576C574.471,576 588,576 588,576L588,572Z" style="fill:rgb(34,118,172);"/>
                    </g>
                    <g transform="matrix(1.33333,0,0,5.33333,64,-2592)">
                        <g id="page10" serif:id="page">
                            <path id="surface10" serif:id="surface" d="M588,565.5C588,565.102 587.368,564.721 586.243,564.439C585.117,564.158 583.591,564 582,564C571.759,564 552,564 552,564L552,574.5C552,574.898 552.632,575.279 553.757,575.561C554.883,575.842 556.409,576 558,576C568.241,576 588,576 588,576L588,565.5Z" style="fill:rgb(34,118,172);"/>
                        </g>
                    </g>
                    <g id="page11" serif:id="page">
                        <g id="surface11" serif:id="surface" transform="matrix(-1.33333,0,0,5.33333,1680,-2640)">
                            <path d="M588,565.5C588,565.102 587.368,564.721 586.243,564.439C585.117,564.158 583.591,564 582,564C571.759,564 552,564 552,564L552,574.5C552,574.898 552.632,575.279 553.757,575.561C554.883,575.842 556.409,576 558,576C568.241,576 588,576 588,576L588,565.5Z" style="fill:rgb(34,118,172);"/>
                        </g>
                        <g id="page-c__content1" serif:id="page-c__content" transform="matrix(1,0,0,1,485.93,-40.1788)">
                            <g transform="matrix(0.666275,0,0,1.33333,138.235,-143.821)">
                                <rect x="420" y="420" width="24" height="3" style="fill:white;"/>
                            </g>
                            <g transform="matrix(0.666275,0,0,1.33333,138.244,-135.788)">
                                <rect x="420" y="420" width="24" height="3" style="fill:white;"/>
                            </g>
                            <g transform="matrix(1.33333,0,0,1.33333,-141.93,-127.821)">
                                <rect x="420" y="420" width="24" height="3" style="fill:white;"/>
                            </g>
                            <g transform="matrix(1.33333,0,0,1.33333,-141.93,-119.821)">
                                <rect x="420" y="420" width="24" height="3" style="fill:white;"/>
                            </g>
                            <g transform="matrix(1.33333,0,0,4,-141.93,-1231.82)">
                                <rect x="420" y="420" width="24" height="3" style="fill:white;"/>
                            </g>
                        </g>
                    </g>
                    <g id="leaf20" serif:id="leaf" transform="matrix(1.33333,0,0,2,64,-792)">
                        <path d="M588,568C588,566.939 587.368,565.922 586.243,565.172C585.117,564.421 583.591,564 582,564C571.759,564 552,564 552,564L552,572C552,573.061 552.632,574.078 553.757,574.828C554.883,575.579 556.409,576 558,576C568.241,576 588,576 588,576L588,568Z" style="fill:rgb(34,118,172);"/>
                    </g>
                    <g id="leaf21" serif:id="leaf" transform="matrix(0.888889,0,0,1.33333,405.333,-312)">
                        <path d="M588,570C588,566.686 583.971,564 579,564L552,564L552,570C552,573.314 556.029,576 561,576L588,576L588,570Z" style="fill:rgb(34,118,172);"/>
                    </g>
                    <g id="leaf22" serif:id="leaf" transform="matrix(0.888889,0,0,-1.33333,405.333,1264)">
                        <path d="M588,570C588,566.686 583.971,564 579,564L552,564L552,570C552,573.314 556.029,576 561,576L588,576L588,570Z" style="fill:rgb(34,118,172);"/>
                    </g>
                    <g id="leaf23" serif:id="leaf" transform="matrix(0.888889,0,0,-1.33333,325.333,1256)">
                        <path d="M588,570C588,566.686 583.971,564 579,564L552,564L552,570C552,573.314 556.029,576 561,576L588,576L588,570Z" style="fill:rgb(34,118,172);"/>
                    </g>
                </g>
                <g id="group6" serif:id="group" transform="matrix(0.365625,0,0,0.902778,1371.75,101.556)">
                    <g transform="matrix(1,0,0,1,30,-80)">
                        <path d="M706,1104L706,672C706,650.783 697.571,630.434 682.569,615.431C667.566,600.429 647.217,592 626,592C618.06,592 609.94,592 602,592C589.27,592 577.061,586.943 568.059,577.941C559.057,568.939 554,556.73 554,544L554,368L522,368L522,544C522,565.217 530.429,585.566 545.431,600.569C560.434,615.571 580.783,624 602,624C609.94,624 618.06,624 626,624C638.73,624 650.939,629.057 659.941,638.059C668.943,647.061 674,659.27 674,672L674,1104L706,1104Z" style="fill:rgb(68,160,218);"/>
                    </g>
                    <g id="page12" serif:id="page" transform="matrix(1,0,0,1,85.9299,-72.1788)">
                        <g id="surface12" serif:id="surface" transform="matrix(1.33333,0,0,5.33333,-325.93,-2599.82)">
                            <path d="M588,565.5C588,565.102 587.368,564.721 586.243,564.439C585.117,564.158 583.591,564 582,564C571.759,564 552,564 552,564L552,574.5C552,574.898 552.632,575.279 553.757,575.561C554.883,575.842 556.409,576 558,576C568.241,576 588,576 588,576L588,565.5Z" style="fill:rgb(68,160,218);"/>
                        </g>
                        <g id="page-a__content1" serif:id="page-a__content">
                            <g transform="matrix(0.666667,0,0,6.66667,138.07,-2383.82)">
                                <rect x="420" y="420" width="24" height="3" style="fill:white;"/>
                            </g>
                            <g transform="matrix(0.5,0,0,1.33333,228.07,-143.821)">
                                <rect x="420" y="420" width="24" height="3" style="fill:white;"/>
                            </g>
                            <g transform="matrix(0.5,0,0,1.33333,228.077,-135.788)">
                                <rect x="420" y="420" width="24" height="3" style="fill:white;"/>
                            </g>
                            <g transform="matrix(0.5,0,0,1.33333,228.07,-127.821)">
                                <rect x="420" y="420" width="24" height="3" style="fill:white;"/>
                            </g>
                            <g transform="matrix(1.33333,0,0,1.33333,-141.93,-119.821)">
                                <rect x="420" y="420" width="24" height="3" style="fill:white;"/>
                            </g>
                            <g transform="matrix(1.33333,0,0,1.33333,-141.93,-111.821)">
                                <rect x="420" y="420" width="24" height="3" style="fill:white;"/>
                            </g>
                            <g transform="matrix(0.666667,0,0,1.33333,138.07,-103.821)">
                                <rect x="420" y="420" width="24" height="3" style="fill:white;"/>
                            </g>
                        </g>
                    </g>
                    <g transform="matrix(-1.33333,0,0,5.33333,1376,-2704)">
                        <g id="page13" serif:id="page">
                            <path id="surface13" serif:id="surface" d="M588,565.5C588,565.102 587.368,564.721 586.243,564.439C585.117,564.158 583.591,564 582,564C571.759,564 552,564 552,564L552,574.5C552,574.898 552.632,575.279 553.757,575.561C554.883,575.842 556.409,576 558,576C568.241,576 588,576 588,576L588,565.5Z" style="fill:rgb(68,160,218);"/>
                        </g>
                    </g>
                    <g id="leaf24" serif:id="leaf" transform="matrix(0.888889,0,0,1.33333,101.333,-376)">
                        <path d="M588,570C588,566.686 583.971,564 579,564L552,564L552,570C552,573.314 556.029,576 561,576L588,576L588,570Z" style="fill:rgb(68,160,218);"/>
                    </g>
                    <g id="leaf25" serif:id="leaf" transform="matrix(0.888889,0,0,-1.33333,21.3333,1176)">
                        <path d="M588,570C588,566.686 583.971,564 579,564L552,564L552,570C552,573.314 556.029,576 561,576L588,576L588,570Z" style="fill:rgb(68,160,218);"/>
                    </g>
                </g>
            </g>
        </g>
    </g>
</svg>
