<?xml version="1.0" encoding="UTF-8" standalone="no"?>
<!DOCTYPE svg PUBLIC "-//W3C//DTD SVG 1.1//EN" "http://www.w3.org/Graphics/SVG/1.1/DTD/svg11.dtd">
<svg width="640" height="864" viewBox="0 0 640 864" version="1.1" xmlns="http://www.w3.org/2000/svg" xmlns:xlink="http://www.w3.org/1999/xlink" xml:space="preserve" xmlns:serif="http://www.serif.com/" style="fill-rule:evenodd;clip-rule:evenodd;stroke-linejoin:round;stroke-miterlimit:2;">
    <rect id="tree" x="0" y="0" width="640" height="864" style="fill:none;"/>
    <clipPath id="_clip1">
        <rect x="0" y="0" width="640" height="864"/>
    </clipPath>
    <g clip-path="url(#_clip1)">
        <g id="group">
            <path d="M336,864l0,-96c-0,-44.183 -35.817,-80 -80,-80l-24,-0c-26.51,0 -48,-21.49 -48,-48c0,-0 0,-208 0,-208l-32,-0c0,-0 0,127.592 0,208c0,44.183 35.817,80 80,80l24,-0c26.51,-0 48,21.49 48,48c0,0 0,96 0,96l32,-0Z" style="fill:rgb(23,85,124);"/>
            <path id="leaf" d="M120,648c0,-4.418 3.582,-8 8,-8c6.98,-0 16,-0 16,-0l-0,4c-0,4.418 -3.582,8 -8,8c-6.98,-0 -16,-0 -16,-0l-0,-4Z" style="fill:rgb(23,85,124);"/>
            <path id="leaf1" serif:id="leaf" d="M192,616c0,4.418 3.582,8 8,8c6.98,-0 16,-0 16,0l-0,-4c-0,-4.418 -3.582,-8 -8,-8c-6.98,0 -16,0 -16,0l-0,4Z" style="fill:rgb(23,85,124);"/>
            <path id="leaf2" serif:id="leaf" d="M192,472c0,-2.122 0.843,-4.157 2.343,-5.657c1.5,-1.5 3.535,-2.343 5.657,-2.343c13.655,0 40,0 40,0l0,16c-0,2.122 -0.843,4.157 -2.343,5.657c-1.5,1.5 -3.535,2.343 -5.657,2.343c-13.655,0 -40,0 -40,0l0,-16Z" style="fill:rgb(23,85,124);"/>
            <path id="leaf3" serif:id="leaf" d="M224,596c-0,4.418 -3.582,8 -8,8l-24,0l-0,-8c-0,-4.418 3.582,-8 8,-8l24,0l-0,8Z" style="fill:rgb(23,85,124);"/>
            <g id="page">
                <path id="surface" d="M144,576c-0,-2.122 -0.843,-4.157 -2.343,-5.657c-1.5,-1.5 -3.535,-2.343 -5.657,-2.343c-13.655,0 -40,0 -40,0l0,56c0,2.122 0.843,4.157 2.343,5.657c1.5,1.5 3.535,2.343 5.657,2.343c13.655,-0 40,-0 40,0l0,-56Z" style="fill:rgb(23,85,124);"/>
                <g id="page-d__content">
                    <rect x="104" y="584" width="32" height="20" style="fill:white;"/>
                    <rect x="104" y="576" width="32" height="4" style="fill:white;"/>
                    <rect x="104" y="608" width="32" height="4" style="fill:white;"/>
                    <rect x="104" y="616" width="32" height="4" style="fill:white;"/>
                </g>
            </g>
        </g>
        <g id="group1" serif:id="group">
            <path d="M336,864l0,-176c0,-26.51 21.49,-48 48,-48l120,0c44.183,-0 80,-35.817 80,-80l0,-176l-32,0l0,176c-0,26.51 -21.49,48 -48,48l-120,0c-44.183,0 -80,35.817 -80,80l0,176l32,-0Z" style="fill:rgb(23,85,124);"/>
            <path id="leaf4" serif:id="leaf" d="M544,516c-0,4.418 -3.582,8 -8,8c-6.98,-0 -16,-0 -16,-0l0,-4c0,-4.418 3.582,-8 8,-8c6.98,-0 16,-0 16,-0l-0,4Z" style="fill:rgb(23,85,124);"/>
            <g id="page1" serif:id="page">
                <path id="surface1" serif:id="surface" d="M543.989,448c0,-2.122 -0.843,-4.157 -2.343,-5.657c-1.5,-1.5 -3.535,-2.343 -5.657,-2.343c-13.655,0 -40,0 -40,0l0,56c0,2.122 0.843,4.157 2.343,5.657c1.501,1.5 3.535,2.343 5.657,2.343c13.655,-0 40,-0 40,-0l0,-56Z" style="fill:rgb(23,85,124);"/>
                <g id="page-b__content">
                    <rect x="504" y="464" width="12" height="12" style="fill:white;"/>
                    <rect x="504" y="480" width="12" height="4" style="fill:white;"/>
                    <rect x="520" y="464" width="16" height="20" style="fill:white;"/>
                    <rect x="504" y="448" width="32" height="4" style="fill:white;"/>
                    <rect x="504" y="456" width="32" height="4" style="fill:white;"/>
                    <rect x="504" y="488" width="32" height="4" style="fill:white;"/>
                </g>
            </g>
            <g id="page2" serif:id="page">
                <path id="surface2" serif:id="surface" d="M592,408c0,-2.122 0.843,-4.157 2.343,-5.657c1.5,-1.5 3.535,-2.343 5.657,-2.343c13.655,0 40,0 40,0l0,56c-0,2.122 -0.843,4.157 -2.343,5.657c-1.5,1.5 -3.535,2.343 -5.657,2.343c-13.655,-0 -40,-0 -40,-0l-0,-56Z" style="fill:rgb(23,85,124);"/>
            </g>
            <path id="leaf5" serif:id="leaf" d="M624,480c0,-4.418 -3.582,-8 -8,-8l-24,0l0,8c0,4.418 3.582,8 8,8l24,0l0,-8Z" style="fill:rgb(23,85,124);"/>
        </g>
        <g id="group2" serif:id="group">
            <path d="M384,864l-0,-256c0,-21.217 -8.429,-41.566 -23.431,-56.569c-15.003,-15.002 -35.352,-23.431 -56.569,-23.431l-168,0c-26.51,-0 -48,-21.49 -48,-48l0,-192l-32,-0l0,192c0,44.183 35.817,80 80,80l168,0c12.73,0 24.939,5.057 33.941,14.059c9.002,9.002 14.059,21.211 14.059,33.941l-0,256l32,-0Z" style="fill:rgb(34,118,172);"/>
            <g id="page3" serif:id="page">
                <path id="surface3" serif:id="surface" d="M48,328c-0,-2.122 -0.843,-4.157 -2.343,-5.657c-1.5,-1.5 -3.535,-2.343 -5.657,-2.343c-13.655,0 -40,0 -40,0l0,56c0,2.122 0.843,4.157 2.343,5.657c1.5,1.5 3.535,2.343 5.657,2.343c13.655,-0 40,-0 40,0l0,-56Z" style="fill:rgb(34,118,172);"/>
                <g id="page-c__content">
                    <rect x="8" y="328" width="15.991" height="4" style="fill:white;"/>
                    <rect x="8.009" y="336.034" width="15.991" height="4" style="fill:white;"/>
                    <rect x="8" y="344" width="32" height="4" style="fill:white;"/>
                    <rect x="8" y="352" width="32" height="4" style="fill:white;"/>
                    <rect x="8" y="360" width="32" height="12" style="fill:white;"/>
                </g>
            </g>
            <g id="page4" serif:id="page">
                <path id="surface4" serif:id="surface" d="M96,368.027c0,-2.122 0.843,-4.157 2.343,-5.657c1.5,-1.5 3.535,-2.343 5.657,-2.343c13.655,-0 40,-0 40,-0l0,56c-0,2.122 -0.843,4.156 -2.343,5.657c-1.5,1.5 -3.535,2.343 -5.657,2.343c-13.655,-0 -40,-0 -40,-0l0,-56Z" style="fill:rgb(34,118,172);"/>
            </g>
            <path id="leaf6" serif:id="leaf" d="M48,400c0,4.418 -3.582,8 -8,8l-24,0l0,-8c0,-4.418 3.582,-8 8,-8l24,0l0,8Z" style="fill:rgb(34,118,172);"/>
            <path id="leaf7" serif:id="leaf" d="M128,440c0,-4.418 -3.582,-8 -8,-8l-24,0l0,8c0,4.418 3.582,8 8,8l24,0l0,-8Z" style="fill:rgb(34,118,172);"/>
        </g>
        <g id="group3" serif:id="group">
            <rect x="304" y="-0" width="32" height="864" style="fill:rgb(34,118,172);"/>
            <path id="leaf8" serif:id="leaf" d="M376,394c0,-4.418 -3.582,-8 -8,-8l-24,0l0,8c0,4.418 3.582,8 8,8l24,0l0,-8Z" style="fill:rgb(34,118,172);"/>
            <path id="leaf9" serif:id="leaf" d="M376,112c0,-4.418 -3.582,-8 -8,-8l-24,0l0,8c0,4.418 3.582,8 8,8l24,0l0,-8Z" style="fill:rgb(34,118,172);"/>
            <path id="leaf10" serif:id="leaf" d="M296,44c-0,4.418 -3.582,8 -8,8c-6.98,0 -16,0 -16,0l-0,-4c0,-4.418 3.582,-8 8,-8c6.98,0 16,0 16,0l0,4Z" style="fill:rgb(34,118,172);"/>
            <path id="leaf11" serif:id="leaf" d="M368,240c-0,-4.418 -3.582,-8 -8,-8c-6.98,0 -16,0 -16,0l0,4c0,4.418 3.582,8 8,8c6.98,0 16,0 16,0l0,-4Z" style="fill:rgb(34,118,172);"/>
            <path id="leaf12" serif:id="leaf" d="M296,316c-0,4.418 -3.582,8 -8,8c-6.98,-0 -16,-0 -16,-0l0,-4c0,-4.418 3.582,-8 8,-8c6.98,-0 16,-0 16,-0l0,4Z" style="fill:rgb(34,118,172);"/>
            <path id="leaf13" serif:id="leaf" d="M296,24c-0,-4.418 -3.582,-8 -8,-8l-24,0l-0,8c-0,4.418 3.582,8 8,8l24,0l-0,-8Z" style="fill:rgb(34,118,172);"/>
            <path id="leaf14" serif:id="leaf" d="M296,176c0,4.418 -3.582,8 -8,8l-24,0l-0,-8c-0,-4.418 3.582,-8 8,-8l24,0l0,8Z" style="fill:rgb(34,118,172);"/>
            <g id="page5" serif:id="page">
                <path id="surface5" serif:id="surface" d="M296,104c-0,-2.122 -0.843,-4.157 -2.343,-5.657c-1.5,-1.5 -3.535,-2.343 -5.657,-2.343c-13.655,0 -40,0 -40,0l0,56c0,2.122 0.843,4.157 2.343,5.657c1.5,1.5 3.535,2.343 5.657,2.343c13.655,-0 40,-0 40,-0l0,-56Z" style="fill:rgb(34,118,172);"/>
                <g id="page-d__content1" serif:id="page-d__content">
                    <rect x="256" y="112" width="32" height="20" style="fill:white;"/>
                    <rect x="256" y="104" width="32" height="4" style="fill:white;"/>
                    <rect x="256" y="136" width="32" height="4" style="fill:white;"/>
                    <rect x="256" y="144" width="32" height="4" style="fill:white;"/>
                </g>
            </g>
            <g id="page6" serif:id="page">
                <path id="surface6" serif:id="surface" d="M296,248c-0,-2.122 -0.843,-4.157 -2.343,-5.657c-1.5,-1.5 -3.535,-2.343 -5.657,-2.343c-13.655,0 -40,0 -40,0l0,56c0,2.122 0.843,4.157 2.343,5.657c1.5,1.5 3.535,2.343 5.657,2.343c13.655,-0 40,-0 40,0l0,-56Z" style="fill:rgb(34,118,172);"/>
            </g>
            <g id="page7" serif:id="page">
                <path id="surface7" serif:id="surface" d="M344,40c0,-2.122 0.843,-4.157 2.343,-5.657c1.5,-1.5 3.535,-2.343 5.657,-2.343c13.655,0 40,0 40,0l0,56c-0,2.122 -0.843,4.157 -2.343,5.657c-1.5,1.5 -3.535,2.343 -5.657,2.343c-13.655,-0 -40,-0 -40,0l0,-56Z" style="fill:rgb(34,118,172);"/>
            </g>
            <g id="page8" serif:id="page">
                <path id="surface8" serif:id="surface" d="M344,168c0,-2.122 0.843,-4.157 2.343,-5.657c1.5,-1.5 3.535,-2.343 5.657,-2.343c13.655,0 40,0 40,0l0,56c-0,2.122 -0.843,4.157 -2.343,5.657c-1.5,1.5 -3.535,2.343 -5.657,2.343c-13.655,0 -40,0 -40,0l0,-56Z" style="fill:rgb(34,118,172);"/>
                <g id="page-b__content1" serif:id="page-b__content">
                    <rect x="352" y="184" width="12" height="12" style="fill:white;"/>
                    <rect x="352" y="200" width="12" height="4" style="fill:white;"/>
                    <rect x="368" y="184" width="16" height="20" style="fill:white;"/>
                    <rect x="352" y="168" width="32" height="4" style="fill:white;"/>
                    <rect x="352" y="176" width="32" height="4" style="fill:white;"/>
                    <rect x="352" y="208" width="32" height="4" style="fill:white;"/>
                </g>
            </g>
            <path id="leaf15" serif:id="leaf" d="M392,370c-0,2.122 -0.843,4.157 -2.343,5.657c-1.5,1.5 -3.535,2.343 -5.657,2.343c-13.655,0 -40,0 -40,0l0,-16c0,-2.122 0.843,-4.157 2.343,-5.657c1.5,-1.5 3.535,-2.343 5.657,-2.343c13.655,0 40,0 40,0l-0,16Z" style="fill:rgb(34,118,172);"/>
        </g>
        <g id="group4" serif:id="group">
            <path d="M336,864l-0,-96c0,-26.51 21.49,-48 48,-48l24,0c21.217,0 41.566,-8.429 56.569,-23.431c15.002,-15.003 23.431,-35.352 23.431,-56.569c0,-0 0,-144 0,-144l-32,0l-0,144c0,12.73 -5.057,24.939 -14.059,33.941c-9.002,9.002 -21.211,14.059 -33.941,14.059l-24,-0c-44.183,-0 -80,35.817 -80,80l0,96l32,-0Z" style="fill:rgb(68,160,218);"/>
            <path id="leaf16" serif:id="leaf" d="M448,588c-0,4.418 -3.582,8 -8,8c-6.98,-0 -16,-0 -16,-0l0,-4c0,-4.418 3.582,-8 8,-8c6.98,-0 16,-0 16,-0l0,4Z" style="fill:rgb(68,160,218);"/>
            <g id="page9" serif:id="page">
                <path id="surface9" serif:id="surface" d="M448,520c-0,-2.122 -0.843,-4.157 -2.343,-5.657c-1.5,-1.5 -3.535,-2.343 -5.657,-2.343c-13.655,0 -40,0 -40,0l0,56c0,2.122 0.843,4.157 2.343,5.657c1.5,1.5 3.535,2.343 5.657,2.343c13.655,0 40,0 40,0l0,-56Z" style="fill:rgb(68,160,218);"/>
                <g id="page-a__content">
                    <rect x="408" y="520" width="16" height="20" style="fill:white;"/>
                    <rect x="428" y="520" width="12" height="4" style="fill:white;"/>
                    <rect x="428.007" y="528.034" width="12" height="4" style="fill:white;"/>
                    <rect x="428" y="536" width="12" height="4" style="fill:white;"/>
                    <rect x="408" y="544" width="32" height="4" style="fill:white;"/>
                    <rect x="408" y="552" width="32" height="4" style="fill:white;"/>
                    <rect x="408" y="560" width="16" height="4" style="fill:white;"/>
                </g>
            </g>
            <path id="leaf17" serif:id="leaf" d="M544,568c-0,2.122 -0.843,4.157 -2.343,5.657c-1.5,1.5 -3.535,2.343 -5.657,2.343c-13.655,-0 -40,-0 -40,0l-0,-16c0,-2.122 0.843,-4.157 2.343,-5.657c1.5,-1.5 3.535,-2.343 5.657,-2.343c13.655,0 40,0 40,0l-0,16Z" style="fill:rgb(68,160,218);"/>
        </g>
        <g id="group5" serif:id="group">
            <path d="M288,864l0,-352c-0,-12.73 5.057,-24.939 14.059,-33.941c9.002,-9.002 21.211,-14.059 33.941,-14.059l72,0c21.217,0 41.566,-8.429 56.569,-23.431c15.002,-15.003 23.431,-35.352 23.431,-56.569l0,-224l-32,0l0,224c-0,12.73 -5.057,24.939 -14.059,33.941c-9.002,9.002 -21.211,14.059 -33.941,14.059l-72,0c-21.217,-0 -41.566,8.429 -56.569,23.431c-15.002,15.003 -23.431,35.352 -23.431,56.569c0,0 0,352 0,352l32,0Z" style="fill:rgb(34,118,172);"/>
            <path id="leaf18" serif:id="leaf" d="M448,212c-0,4.418 -3.582,8 -8,8c-6.98,-0 -16,-0 -16,-0l0,-4c0,-4.418 3.582,-8 8,-8c6.98,-0 16,-0 16,-0l0,4Z" style="fill:rgb(34,118,172);"/>
            <path id="leaf19" serif:id="leaf" d="M520,368c-0,-4.418 -3.582,-8 -8,-8c-6.98,0 -16,0 -16,0l0,4c0,4.418 3.582,8 8,8c6.98,0 16,0 16,0l0,-4Z" style="fill:rgb(34,118,172);"/>
            <g id="page10" serif:id="page">
                <path id="surface10" serif:id="surface" d="M448,264c-0,-2.122 -0.843,-4.157 -2.343,-5.657c-1.5,-1.5 -3.535,-2.343 -5.657,-2.343c-13.655,0 -40,0 -40,0l0,56c0,2.122 0.843,4.157 2.343,5.657c1.5,1.5 3.535,2.343 5.657,2.343c13.655,0 40,0 40,0l0,-56Z" style="fill:rgb(34,118,172);"/>
            </g>
            <g id="page11" serif:id="page">
                <path id="surface11" serif:id="surface" d="M496,216c0,-2.122 0.843,-4.157 2.343,-5.657c1.5,-1.5 3.535,-2.343 5.657,-2.343c13.655,0 40,0 40,0l-0,56c-0,2.122 -0.843,4.157 -2.343,5.657c-1.5,1.5 -3.535,2.343 -5.657,2.343c-13.655,-0 -40,-0 -40,-0l-0,-56Z" style="fill:rgb(34,118,172);"/>
                <g id="page-c__content1" serif:id="page-c__content">
                    <rect x="504" y="216" width="15.991" height="4" style="fill:white;"/>
                    <rect x="504.009" y="224.034" width="15.991" height="4" style="fill:white;"/>
                    <rect x="504" y="232" width="32" height="4" style="fill:white;"/>
                    <rect x="504" y="240" width="32" height="4" style="fill:white;"/>
                    <rect x="504" y="248" width="32" height="12" style="fill:white;"/>
                </g>
            </g>
            <path id="leaf20" serif:id="leaf" d="M448,184c-0,-2.122 -0.843,-4.157 -2.343,-5.657c-1.5,-1.5 -3.535,-2.343 -5.657,-2.343c-13.655,0 -40,0 -40,0l0,16c0,2.122 0.843,4.157 2.343,5.657c1.5,1.5 3.535,2.343 5.657,2.343c13.655,0 40,0 40,0l0,-16Z" style="fill:rgb(34,118,172);"/>
            <path id="leaf21" serif:id="leaf" d="M528,288c-0,-4.418 -3.582,-8 -8,-8l-24,0l-0,8c-0,4.418 3.582,8 8,8l24,0l-0,-8Z" style="fill:rgb(34,118,172);"/>
            <path id="leaf22" serif:id="leaf" d="M528,344c-0,4.418 -3.582,8 -8,8l-24,0l-0,-8c-0,-4.418 3.582,-8 8,-8l24,0l-0,8Z" style="fill:rgb(34,118,172);"/>
            <path id="leaf23" serif:id="leaf" d="M448,336c-0,4.418 -3.582,8 -8,8l-24,0l-0,-8c-0,-4.418 3.582,-8 8,-8l24,0l-0,8Z" style="fill:rgb(34,118,172);"/>
        </g>
        <g id="group6" serif:id="group">
            <path d="M336,864l0,-432c0,-21.217 -8.429,-41.566 -23.431,-56.569c-15.003,-15.002 -35.352,-23.431 -56.569,-23.431c-7.94,0 -16.06,0 -24,0c-12.73,0 -24.939,-5.057 -33.941,-14.059c-9.002,-9.002 -14.059,-21.211 -14.059,-33.941l0,-176l-32,-0l0,176c0,21.217 8.429,41.566 23.431,56.569c15.003,15.002 35.352,23.431 56.569,23.431c7.94,0 16.06,0 24,-0c12.73,-0 24.939,5.057 33.941,14.059c9.002,9.002 14.059,21.211 14.059,33.941l-0,432l32,-0Z" style="fill:rgb(68,160,218);"/>
            <g id="page12" serif:id="page">
                <path id="surface12" serif:id="surface" d="M144,184c-0,-2.122 -0.843,-4.157 -2.343,-5.657c-1.5,-1.5 -3.535,-2.343 -5.657,-2.343c-13.655,0 -40,0 -40,0l0,56c0,2.122 0.843,4.157 2.343,5.657c1.5,1.5 3.535,2.343 5.657,2.343c13.655,-0 40,-0 40,0l0,-56Z" style="fill:rgb(68,160,218);"/>
                <g id="page-a__content1" serif:id="page-a__content">
                    <rect x="104" y="184" width="16" height="20" style="fill:white;"/>
                    <rect x="124" y="184" width="12" height="4" style="fill:white;"/>
                    <rect x="124.007" y="192.034" width="12" height="4" style="fill:white;"/>
                    <rect x="124" y="200" width="12" height="4" style="fill:white;"/>
                    <rect x="104" y="208" width="32" height="4" style="fill:white;"/>
                    <rect x="104" y="216" width="32" height="4" style="fill:white;"/>
                    <rect x="104" y="224" width="16" height="4" style="fill:white;"/>
                </g>
            </g>
            <g id="page13" serif:id="page">
                <path id="surface13" serif:id="surface" d="M192,152c0,-2.122 0.843,-4.157 2.343,-5.657c1.5,-1.5 3.535,-2.343 5.657,-2.343c13.655,0 40,0 40,0l0,56c-0,2.122 -0.843,4.157 -2.343,5.657c-1.5,1.5 -3.535,2.343 -5.657,2.343c-13.655,0 -40,0 -40,0l0,-56Z" style="fill:rgb(68,160,218);"/>
            </g>
            <path id="leaf24" serif:id="leaf" d="M224,224c0,-4.418 -3.582,-8 -8,-8l-24,0l-0,8c-0,4.418 3.582,8 8,8l24,-0l0,-8Z" style="fill:rgb(68,160,218);"/>
            <path id="leaf25" serif:id="leaf" d="M144,256c-0,4.418 -3.582,8 -8,8l-24,-0l-0,-8c-0,-4.418 3.582,-8 8,-8l24,-0l-0,8Z" style="fill:rgb(68,160,218);"/>
        </g>
    </g>
</svg>
